<?xml version="1.0" encoding="utf-8"?>
<!-- Generator: Adobe Illustrator 13.0.2, SVG Export Plug-In . SVG Version: 6.00 Build 14948)  -->
<!DOCTYPE svg PUBLIC "-//W3C//DTD SVG 1.1//EN" "http://www.w3.org/Graphics/SVG/1.1/DTD/svg11.dtd">
<svg version="1.1" id="Layer_x5F_1_x5F_1" xmlns="http://www.w3.org/2000/svg" xmlns:xlink="http://www.w3.org/1999/xlink" x="0px"
	 y="0px" width="904.157px" height="140.001px" viewBox="0 0 904.157 140.001" enable-background="new 0 0 904.157 140.001"
	 xml:space="preserve">
<path fill-rule="evenodd" clip-rule="evenodd" fill="#93C116" d="M362.02,122.09l5.77,5.75c11.42,11.36,37.7,20.41,58.12,0.08
	c20.02-19.94,11.67-46.49,0.08-58.03C413.78,57.73,387.47,50.61,368,70c-6.41,6.38-32,32-32,32v34l4,4l18-18l-4-4
	c0,0,20.07-20.12,31-31c9.39-9.35,20.48-3.47,23.89-0.08c2.45,2.44,10.1,13.84,0,23.89c-11.63,11.58-24,0-24,0l-5.95-5.81
	L362.02,122.09z"/>
<path fill-rule="evenodd" clip-rule="evenodd" fill="#93C116" d="M156,46h24V36l-24-24h-17.19C112.08,12,98,34.6,98,50.84V99
	c0,17.16,13.68,41,40.92,41h106.96v-24H139c-13.14,0-17-12.22-17-17V50.87c0-5.36,5.1-14.87,17-14.87h17V46z"/>
<path fill-rule="evenodd" clip-rule="evenodd" fill="#93C116" d="M82,0L58,24v92H41.06C27.83,116,24,103.81,24,99
	c0-9.19,5.02-17,17-17h5V58h-4.88C14.19,58,0,78.79,0,98.91C0,116.16,13.56,140,41,140h17l24-23.88V116V24h10V0H82z"/>
<path fill="#93C116" d="M196,140c34.15,0,56-24,56-24h-20L196,140z"/>
<g>
	<path fill-rule="evenodd" clip-rule="evenodd" fill="#93C116" d="M196,116c-9.32,0-16-7.58-16-16.94S186.68,82,196,82
		s18,7.64,18,17S205.32,116,196,116z M196,58c-22.72,0-40,18.18-40,41c0,22.81,17.28,41,40,41s42-18.25,42-41.06
		C238,76.12,218.72,58,196,58z"/>
</g>
<path fill-rule="evenodd" clip-rule="evenodd" fill="#93C116" d="M292,116v24h10l24-24V98.91C326,74.15,304.06,58,285,58h-15l-24,24
	v0.04V140l24-24V82.04h14.93c9.45,0,17.07,8.79,17.07,16.96v17H292z"/>
<polygon fill="#93C116" points="58,140 48,116 58,116 "/>
<polygon fill="#93C116" points="246,82.01 270,92 270,82 "/>
<polygon fill="#93C116" points="82,0 92,24 82,24 "/>
<polygon fill="#93C116" points="180,36 156,46 156,36 "/>
<polygon fill="#93C116" points="302,140 292,116 302,116 "/>
<polygon fill="#93C116" points="336,136 358,122 354,118 "/>
<path fill="#93C116" d="M158,116l22.45-10c0,0,4.59,10,15.43,10H158z"/>
<polygon fill="#93C116" points="246,140 236,116 246,116 "/>
<path fill-rule="evenodd" clip-rule="evenodd" fill="#93C116" d="M688,92h24V82l-23.96-23.96c0,0-2.32-0.04-4.04-0.04
	c-26.57,0-40,20.88-40,41c0,17.25,12.92,41,40,41h28v-24h-28c-13.06,0-16-12.25-16-17.06c0-9.2,4.17-16.94,16-16.94h4V92z"/>
<path fill-rule="evenodd" clip-rule="evenodd" fill="#93C116" d="M500,140l24-24V99c0-5.36,4.26-17,16.94-17H546l24-24h-29.01
	C512.67,58,500,82.38,500,99.06V116h-14.94c-9.53,0-17.06-8.89-17.06-17.06V82h10V58h-10V24L444,0h-10v24h10v75.09
	c0,24.76,22.2,40.91,41.44,40.91h14.34l0.22-0.23V140z"/>
<path fill-rule="evenodd" clip-rule="evenodd" fill="#93C116" d="M754,82V58h-10V24L720,0h-10v24h10v62v14c0,24.76,22.77,40,42,40
	h14l24-24h-38c-9.53,0-18-8.83-18-17V86v-4H754z"/>
<path fill-rule="evenodd" clip-rule="evenodd" fill="#93C116" d="M590,82V58h-10l-24,24v17.09c0,24.76,22,40.91,41.07,40.91H612
	l24-24V58h-24v58h-14.94c-9.44,0-17.06-8.89-17.06-17.06V82H590z"/>
<polygon fill="#93C116" points="500,140 488,116 500,116 "/>
<polygon fill="#93C116" points="468,58 478,82 468,82 "/>
<polygon fill="#93C116" points="580,58 590,82 580,82 "/>
<polygon fill="#93C116" points="636,116 612,106 612,116 "/>
<polygon fill="#93C116" points="444,82 468,48 468,58 "/>
<polygon fill="#93C116" points="444,0 434,24 444,24 "/>
<polygon fill="#93C116" points="744,58 754,82 744,82 "/>
<polygon fill="#93C116" points="720,82 744,48 744,58 "/>
<polygon fill="#93C116" points="720,0 710,24 720,24 "/>
<polygon fill="#93C116" points="712,82 688,92 688,82 "/>
<g>
	<path fill="#668811" d="M802.52,55v-3.024l3.864-3.752c9.296-8.848,13.552-13.552,13.552-19.04c0-3.696-1.736-7.112-7.168-7.112
		c-3.304,0-6.048,1.68-7.728,3.08l-1.568-3.472c2.464-2.072,6.104-3.696,10.248-3.696c7.84,0,11.144,5.376,11.144,10.584
		c0,6.72-4.872,12.152-12.544,19.543l-2.856,2.688v0.112h16.296V55H802.52z"/>
	<path fill="#668811" d="M855.495,36.408c0,12.376-4.648,19.208-12.656,19.208c-7.112,0-11.984-6.664-12.096-18.704
		c0-12.264,5.32-18.928,12.712-18.928C851.071,17.984,855.495,24.816,855.495,36.408z M835.727,36.968
		c0,9.464,2.912,14.84,7.392,14.84c4.984,0,7.392-5.88,7.392-15.176c0-8.96-2.24-14.84-7.392-14.84
		C838.863,21.792,835.727,27.056,835.727,36.968z"/>
	<path fill="#668811" d="M870.67,23.192h-0.112l-6.328,3.416l-0.952-3.752l7.952-4.256h4.2V55h-4.76V23.192z"/>
	<path fill="#668811" d="M899.397,23.192h-0.112l-6.328,3.416l-0.952-3.752l7.952-4.256h4.2V55h-4.76V23.192z"/>
</g>
</svg>
